<svg xmlns="http://www.w3.org/2000/svg" viewBox="0 0 396.47 312.29"><defs><style>.cls-1{fill:#f5f5f5;}.cls-2{fill:#263238;}.cls-3{fill:#ff8b7b;}.cls-12,.cls-4,.cls-9{fill:#005aad;}.cls-12,.cls-5,.cls-7{opacity:0.2;}.cls-11,.cls-6{fill:#fff;}.cls-8,.cls-9{opacity:0.3;}.cls-10{fill:#ff5652;}.cls-11{opacity:0.7;}.cls-13{fill:#ffc3bd;}.cls-14{fill:#ed847e;}</style></defs><title>Ativo 1</title><g id="Camada_2" data-name="Camada 2"><g id="Shadow"><ellipse id="_Path_" data-name="&lt;Path&gt;" class="cls-1" cx="193.89" cy="300.96" rx="193.89" ry="11.32"/></g><g id="Character_1" data-name="Character 1"><path class="cls-2" d="M81.71,30.61c-8.06,8.1,5.64,20.7-3.41,26.47,7.38,3.71,33.29,8.42,40-6.16-4.89-3.8-1.49-13.15-6-22.11C105.55,15.5,73.65,21.39,81.71,30.61Z"/><path class="cls-2" d="M82.44,30.39c-2.51-.42-11,3.81-4.68,15.14,5.09,9.15.85,9.81.85,9.81s5,.14,2-6.67C77.43,41.39,75.94,33.85,82.44,30.39Z"/><path class="cls-3" d="M141.87,102.34a2.42,2.42,0,0,0-3.29-1l-.59.31c-.19.1-.55.34-.85.5a10.71,10.71,0,0,1-.94.52,15.62,15.62,0,0,1-1.95.83,12.25,12.25,0,0,1-3.85.72,10.32,10.32,0,0,1-3.55-.57,12.7,12.7,0,0,1-2.09-1c-.86-1.91-1.68-3.83-2.38-5.8q-1.27-3.48-2.26-7.07c-.65-2.39-1.24-4.8-1.72-7.23-.25-1.22-.47-2.43-.67-3.65l-.27-1.81c-.09-.58-.17-1.23-.22-1.69l0-.2a5,5,0,0,0-10,1c.07.84.13,1.49.22,2.21s.19,1.39.29,2.08c.22,1.37.47,2.74.75,4.09a76.22,76.22,0,0,0,2.1,8c.39,1.32.87,2.63,1.32,3.93s1,2.6,1.56,3.86a73.47,73.47,0,0,0,3.72,7.49l.12.22a3.92,3.92,0,0,0,1.55,1.55,20.44,20.44,0,0,0,6,2.14,17,17,0,0,0,6.56-.14,17.53,17.53,0,0,0,5.75-2.5,18.94,18.94,0,0,0,2.34-1.89c.37-.34.71-.69,1.05-1.06s.61-.73,1-1.25A2.42,2.42,0,0,0,141.87,102.34Z"/><path class="cls-3" d="M148.54,93h-.29a6.23,6.23,0,0,0-5,2.34l-4.83,6.06,0,4.15c3.88,1.54,8.8-2.62,8.8-2.62l2.49-.62a3.48,3.48,0,0,0,2.6-3.88L151.9,96A3.47,3.47,0,0,0,148.54,93Z"/><path class="cls-4" d="M117.12,69.6c3.23,3.32,3.43,13.24,3.43,13.24L107.62,93.23s-5.3-14.69-2.36-19.88C107.75,68.94,113,65.38,117.12,69.6Z"/><g class="cls-5"><path class="cls-6" d="M117.12,69.6c3.23,3.32,3.43,13.24,3.43,13.24L107.62,93.23s-5.3-14.69-2.36-19.88C107.75,68.94,113,65.38,117.12,69.6Z"/></g><polygon class="cls-3" points="95.74 292.39 102.88 293.18 103.86 273.77 96.72 272.99 95.74 292.39"/><path class="cls-2" d="M104.05,288.51H95.66a.65.65,0,0,0-.67.61l-.56,7.94A1.57,1.57,0,0,0,96,298.64c3.54,0,3.58,0,8,0h11.91c3.66,0,3.67-3.71,2.08-4-7.1-1.51-9.87-3.58-12.38-5.56A2.46,2.46,0,0,0,104.05,288.51Z"/><polygon class="cls-7" points="103.85 273.78 103.35 283.78 96.17 283.79 96.72 272.99 103.85 273.78"/><path class="cls-2" d="M107.71,119s6.17,51.73,6.17,74.73c-4.87,32-9,88.16-9,88.16L95,281.63s-4.49-61.17-.33-87.57c-5.33-23.67-11.91-78.27-11.91-78.27Z"/><path class="cls-7" d="M88.66,133.39a29.51,29.51,0,0,0-3.42,1.78c1.36,10.21,3.15,23.06,5.05,34.92C93.53,160.33,91.78,138.87,88.66,133.39Z"/><polygon class="cls-3" points="18.42 274.38 24.31 278.49 34.47 261.93 28.58 257.82 18.42 274.38"/><path class="cls-2" d="M25.8,276.32l-5-6.72a.62.62,0,0,0-.88-.17l-6.7,4.29a1.58,1.58,0,0,0-.35,2.19c2.09,2.86,2.13,2.88,4.76,6.41l7.12,9.55c2.19,2.94,5.17.73,4.49-.74-3-6.6-3-10.06-2.94-13.25A2.56,2.56,0,0,0,25.8,276.32Z"/><polygon class="cls-7" points="34.46 261.94 29.23 270.47 22.92 267.04 28.57 257.82 34.46 261.94"/><path class="cls-4" d="M54.55,281.33c-5.11,0-15.75,0-15.93-7.52-.14-5.91,7.16-8.35,13.46-8.65a5.3,5.3,0,0,1,5.56,5.06c0,.13,0,.27,0,.4,7.14-.34,11.76-1.9,13.45-4.56,3.81-6-3.49-21.5-10.54-36.47C52.26,212,42.86,192,42.68,172.93A5.33,5.33,0,0,1,48,167.55h0a5.33,5.33,0,0,1,5.32,5.27c.16,16.78,9,35.62,16.86,52.24,9,19.18,16.85,35.75,9.9,46.7C76,278.2,67.65,281.33,54.55,281.33Z"/><path class="cls-2" d="M99.8,118s-17.06,59.11-25.39,80.55c-16.14,28.06-42.92,71-42.92,71l-8.55-5s20-49.59,33.45-72.69c3.61-24,17.26-77.27,17.26-77.27Z"/><path class="cls-4" d="M27.33,281.15a2.91,2.91,0,0,0,1.49,1.21,1,1,0,0,0,1-.32.76.76,0,0,0,.22-.62c-.12-1.2-3.22-2.75-3.84-3.05a.15.15,0,0,0-.2.06.25.25,0,0,0,0,.26A15.35,15.35,0,0,0,27.33,281.15Zm2.13,0a.76.76,0,0,1,.18.38.23.23,0,0,1-.08.21.7.7,0,0,1-.66.23c-.66-.14-1.53-1.2-2.37-2.89A10.52,10.52,0,0,1,29.46,281.11Z"/><path class="cls-4" d="M26,278.72a.13.13,0,0,0,.06,0c1,.56,3.6,1,4.16.17a.82.82,0,0,0-.05-.95c-1-1.78-4,.3-4.12.39a.24.24,0,0,0-.09.2A.26.26,0,0,0,26,278.72Zm3.8-.58.08.11c.1.19.13.33.07.41-.33.48-2.25.32-3.37-.12C27.28,278.08,29,277.18,29.75,278.14Z"/><path class="cls-4" d="M108.84,290.17a2.89,2.89,0,0,0,1.86-.47,1,1,0,0,0,.31-1,.73.73,0,0,0-.36-.54c-1-.62-4.13.93-4.75,1.25a.17.17,0,0,0-.07.2.28.28,0,0,0,.19.18A14.58,14.58,0,0,0,108.84,290.17Zm1.24-1.73a.81.81,0,0,1,.41.08.23.23,0,0,1,.12.19.7.7,0,0,1-.22.67c-.49.44-1.87.5-3.73.17A10.37,10.37,0,0,1,110.08,288.44Z"/><path class="cls-4" d="M106.07,289.82h.07c1-.47,3-2.3,2.63-3.24a.86.86,0,0,0-.8-.53c-2-.24-2.14,3.38-2.15,3.54a.26.26,0,0,0,.11.2A.23.23,0,0,0,106.07,289.82Zm1.8-3.39H108c.21,0,.34.08.37.18.19.55-1.1,2-2.12,2.63C106.34,288.38,106.67,286.43,107.87,286.43Z"/><path class="cls-4" d="M73.65,114.62,107.71,119c7.68-25.87,10.21-38.35,10.89-44.37a6.56,6.56,0,0,0-4.52-7c-2-.64-4.58-1.4-7.14-2-.87-.23-1.76-.44-2.63-.63a109,109,0,0,0-15.46-2c-.77-.07-1.54-.11-2.3-.15-1.51-.07-3-.1-4.36-.1a7.36,7.36,0,0,0-7.33,8c.27,3,.48,5.79.64,8.34.38,6,.5,10.81.41,15A130.53,130.53,0,0,1,73.65,114.62Z"/><g class="cls-8"><path class="cls-6" d="M73.65,114.62,107.71,119c7.68-25.87,10.21-38.35,10.89-44.37a6.56,6.56,0,0,0-4.52-7c-2-.64-4.58-1.4-7.14-2-.87-.23-1.76-.44-2.63-.63a109,109,0,0,0-15.46-2c-.77-.07-1.54-.11-2.3-.15-1.51-.07-3-.1-4.36-.1a7.36,7.36,0,0,0-7.33,8c.27,3,.48,5.79.64,8.34.38,6,.5,10.81.41,15A130.53,130.53,0,0,1,73.65,114.62Z"/></g><path class="cls-9" d="M75.91,94c4.5-5.82,6.12-12.47,4.67-16.15L75.5,79C75.88,85,76,89.84,75.91,94Z"/><path class="cls-6" d="M106.94,65.56c-.88-.23-1.76-.44-2.63-.64a110.65,110.65,0,0,0-15.47-2c-.77-.06-1.53-.1-2.29-.14l-1.33-.06,1,1.75c.14.24,3.54,5.8,12,11.78l1.81,1.26,1.74-1.33a13.14,13.14,0,0,0,5.48-10.53Z"/><path class="cls-3" d="M92.59,52.65c-.31,4.2-1.3,8.49-3.75,10.29,0,0,3.12,5.19,11.2,10.87,5.06-3.87,4.27-8.88,4.27-8.88-5.38-2-5-5.74-2.73-11.68L97.38,51A2.76,2.76,0,0,0,92.59,52.65Z"/><path class="cls-7" d="M97.38,51a2.76,2.76,0,0,0-4.73,1.28A17,17,0,0,0,100,59.78a18.26,18.26,0,0,1,1.57-6.54Z"/><path class="cls-3" d="M86.06,39.45c2.09,8.12,2.8,11.61,7.76,15,7.47,5.15,17,.81,17.38-7.78C111.55,39,108.08,27,99.4,25.25A11.45,11.45,0,0,0,86.06,39.45Z"/><path class="cls-2" d="M106.75,26.89a44,44,0,0,1-17,9.38s6.2,13.2-5.41,9.87c-3.37-11.25,0-17.08,3-19.83C96.58,23.31,103.08,22.31,106.75,26.89Z"/><path class="cls-3" d="M85.67,47.45a6.11,6.11,0,0,0,3.44,3.18c2,.73,3.19-1,2.76-3-.39-1.8-1.91-4.34-4-4.21A2.75,2.75,0,0,0,85.67,47.45Z"/><path class="cls-4" d="M73.4,112.56l-1.93,2.85c-.15.22.1.5.49.55l35.72,4.58c.31,0,.58-.08.63-.27l.69-3c0-.21-.19-.42-.53-.46L74,112.38A.59.59,0,0,0,73.4,112.56Z"/><path class="cls-2" d="M77.53,117l-.92-.12c-.18,0-.31-.13-.28-.25l.94-3.9c0-.12.2-.19.38-.17l.92.12c.19,0,.32.14.29.25l-.94,3.91C77.89,117,77.72,117,77.53,117Z"/><path class="cls-2" d="M105,120.54l-.92-.12c-.18,0-.31-.14-.28-.25l.94-3.91c0-.11.2-.18.38-.16l.92.12c.19,0,.32.13.29.25l-.94,3.9C105.4,120.49,105.23,120.56,105,120.54Z"/><path class="cls-2" d="M91.29,118.77l-.93-.11c-.18,0-.31-.14-.28-.25L91,114.5c0-.11.2-.19.39-.16l.92.11c.18,0,.31.14.28.25l-.94,3.91C91.65,118.72,91.47,118.8,91.29,118.77Z"/><path class="cls-2" d="M100,39.1c.13.67.59,1.14,1,1.06s.69-.7.56-1.37-.59-1.14-1-1.06S99.86,38.43,100,39.1Z"/><path class="cls-2" d="M107.55,37.64c.13.67.59,1.15,1,1.06s.69-.69.56-1.36-.59-1.15-1-1.06S107.42,37,107.55,37.64Z"/><path class="cls-2" d="M107.93,36.35l1.52-.77S108.86,37,107.93,36.35Z"/><path class="cls-10" d="M105.55,39.14A18.14,18.14,0,0,0,108.76,43a3,3,0,0,1-2.3.91Z"/><path class="cls-2" d="M100.83,46.57a.18.18,0,0,0,0,.22.19.19,0,0,0,.26.09,5.44,5.44,0,0,1,4.89,0,.2.2,0,0,0,.21-.34,5.71,5.71,0,0,0-5.27,0A.1.1,0,0,0,100.83,46.57Z"/><path class="cls-2" d="M97.38,37a.41.41,0,0,0,.14-.15,3.2,3.2,0,0,1,2.26-1.8.4.4,0,1,0-.09-.79,4,4,0,0,0-2.89,2.23.4.4,0,0,0,.18.54A.38.38,0,0,0,97.38,37Z"/><path class="cls-2" d="M109.8,32l0-.06a.41.41,0,0,0-.1-.56,4,4,0,0,0-3.62-.54.42.42,0,0,0-.22.53.4.4,0,0,0,.52.21,3.23,3.23,0,0,1,2.86.46A.41.41,0,0,0,109.8,32Z"/><path class="cls-2" d="M100.36,37.81l1.52-.78S101.29,38.45,100.36,37.81Z"/><path class="cls-4" d="M48,178.19a5.31,5.31,0,0,1-5.32-5.26c-.14-14.21,4.59-26.2,13.68-34.68C67.55,127.82,85,123,105.52,124.59c14.39,1.14,23.62-2.37,34.3-6.43,1.76-.67,3.53-1.34,5.35-2a5.32,5.32,0,0,1,3.64,10c-1.77.64-3.5,1.3-5.21,1.95-10.88,4.14-22.14,8.42-38.92,7.1-17.5-1.4-32.08,2.46-41.06,10.83-6.95,6.48-10.41,15.49-10.3,26.79a5.31,5.31,0,0,1-5.27,5.37Z"/><path class="cls-4" d="M135.1,100h22.81a7.17,7.17,0,0,1,7.17,7.17v25.69a7.17,7.17,0,0,1-7.17,7.17H135.1a0,0,0,0,1,0,0V100a0,0,0,0,1,0,0Z" transform="translate(332.3 181.09) rotate(159.88)"/><path class="cls-11" d="M135.1,100h22.81a7.17,7.17,0,0,1,7.17,7.17v25.69a7.17,7.17,0,0,1-7.17,7.17H135.1a0,0,0,0,1,0,0V100a0,0,0,0,1,0,0Z" transform="translate(332.3 181.09) rotate(159.88)"/><path class="cls-12" d="M147.72,99.57l9.56-3.5L171,133.66l-9.55,3.49a5.79,5.79,0,0,1-1.43-2.19l-12-32.79A5.84,5.84,0,0,1,147.72,99.57Z"/><rect class="cls-4" x="178.89" y="105.43" width="1" height="6.66" transform="translate(-26.46 68.33) rotate(-20.12)"/><path class="cls-4" d="M176.34,101.88,173,92.66a8.16,8.16,0,0,0-7.65-5.33,8,8,0,0,0-2.78.5l-6.08,2.22-.35-.93,6.09-2.23a9,9,0,0,1,3.12-.56,9.17,9.17,0,0,1,8.58,6l3.38,9.22Z"/><rect class="cls-4" x="156.64" y="90.37" width="20.74" height="46.89" rx="5.62" transform="translate(362.98 163.25) rotate(159.88)"/><path class="cls-2" d="M166.09,102.59a3,3,0,1,1-3.84-1.78A3,3,0,0,1,166.09,102.59Z"/><path class="cls-2" d="M173.56,123a3,3,0,1,1-3.85-1.78A3,3,0,0,1,173.56,123Z"/><path class="cls-3" d="M85.92,120.57l-.08-.08c-1.57-1.56-3.22-3.26-4.7-5s-3-3.47-4.28-5.27a51.11,51.11,0,0,1-3.56-5.52,29.22,29.22,0,0,1-1.92-4.27c.6-2,1.24-4,2-5.92.87-2.3,1.85-4.58,2.92-6.81s2.21-4.45,3.44-6.6C80.34,80,81,79,81.62,77.92l1-1.54c.31-.5.68-1,.94-1.43l.11-.17A5,5,0,0,0,75.49,69c-.5.69-.88,1.22-1.28,1.82s-.77,1.18-1.14,1.76C72.33,73.78,71.63,75,71,76.17a80.19,80.19,0,0,0-3.67,7.44c-.56,1.26-1,2.56-1.57,3.84s-.95,2.61-1.35,3.94a73.83,73.83,0,0,0-2.09,8.09l-.05.24a4,4,0,0,0,.15,2.19,32.78,32.78,0,0,0,3.83,7.24,48,48,0,0,0,4.94,6,61.82,61.82,0,0,0,5.59,5.06,59.26,59.26,0,0,0,6.16,4.3,2.49,2.49,0,0,0,3-3.9Z"/><path class="cls-3" d="M97.51,125.54l-.13-.26a6.23,6.23,0,0,0-4.37-3.4l-7.59-1.53-3.71,1.85c.4,4.15,6.34,6.64,6.34,6.64l1.69,1.93a3.48,3.48,0,0,0,4.64.55l2-1.42A3.49,3.49,0,0,0,97.51,125.54Z"/><path class="cls-4" d="M79.08,63.38c-4.21,1.93-8.69,8.6-8.69,8.6l9,16.86S89.66,77,88.8,71.14C88.06,66.13,84.44,60.92,79.08,63.38Z"/><g class="cls-8"><path class="cls-6" d="M79.08,63.38c-4.21,1.93-8.69,8.6-8.69,8.6l9,16.86S89.66,77,88.8,71.14C88.06,66.13,84.44,60.92,79.08,63.38Z"/></g></g><g id="Character_2" data-name="Character 2"><path class="cls-4" d="M367.18,284.16c-8.81,0-17.47-1.82-21.67-7.3-19.88-26-19.7-78.3-19.53-128.91.09-27.24,2.25-53-.78-73-1.78-11.78-8-19.88-14.28-24.06-9.32-6.15-22.13-2.85-27.6-1.43a5.32,5.32,0,0,1-2.66-10.31c6.84-1.76,22.86-5.9,36.12,2.86,9,5.91,16.69,16.46,18.94,31.35,3.15,20.8,1,46.93.9,74.6-.17,48.83-.34,99.32,17.34,122.41,1.43,1.86,7,3.52,16.25,3.05.82,0,1.62-.1,2.41-.17a5.18,5.18,0,0,1-.54-2.32,5.32,5.32,0,0,1,5.32-5.32c11.63,0,17.75,1,18.93,6.31.34,1.53.52,5.37-5.1,8C387,281.9,377,284.16,367.18,284.16Z"/><polygon class="cls-13" points="250.76 288.74 239.91 284.48 245.63 265.67 256.48 269.93 250.76 288.74"/><path class="cls-2" d="M239.65,283.32l12.22,4.81a.72.72,0,0,1,.46.8l-1.19,7.61a1.25,1.25,0,0,1-1.71.95c-3.06-1.27-7.87-3.36-11.76-4.89-2.39-.94-6.94-2.44-10.25-3.74s-2.45-4.74-1-4.51c6.59,1.06,9.11-.06,11.74-1A2.07,2.07,0,0,1,239.65,283.32Z"/><polygon class="cls-7" points="256.49 269.94 245.63 265.67 242.68 275.37 253.54 279.63 256.49 269.94"/><path class="cls-4" d="M270.06,124.33s-9.82,48.54-13.58,72.48c-4.21,26.83-15.36,75.84-15.36,75.84l14.43,5.67s20.61-50.17,23.48-74.48C287.67,184.1,304.88,126,304.88,126Z"/><polygon class="cls-2" points="240.42 272.74 256.26 278.96 258.97 274.16 241.26 266.82 240.42 272.74"/><path class="cls-4" d="M236.54,283.53a2.54,2.54,0,0,1-1.36-1,1.21,1.21,0,0,1,0-1.14.67.67,0,0,1,.53-.4c1-.1,3,2.46,3.19,2.75a.18.18,0,0,1,0,.22.2.2,0,0,1-.2.1A10.32,10.32,0,0,1,236.54,283.53Zm-.53-2.09a.5.5,0,0,0-.26-.05.24.24,0,0,0-.2.17.8.8,0,0,0,0,.78c.28.53,1.29,1,2.74,1.24A8.15,8.15,0,0,0,236,281.44Z"/><path class="cls-4" d="M238.67,284.05l-.08-.06c-.64-.76-1.54-3.11-1-3.92a.65.65,0,0,1,.79-.26,1.1,1.1,0,0,1,.7.55c.62,1.11-.09,3.46-.12,3.56a.21.21,0,0,1-.15.14Zm-.34-3.82-.08,0c-.26-.07-.32,0-.35.08-.3.48.19,2.18.76,3.11a4.79,4.79,0,0,0,0-2.83A.7.7,0,0,0,238.33,280.23Z"/><path class="cls-7" d="M291.23,153.75c-5.44,6.75-7.59,23.92-7.57,38.24,3.67-10.1,7.88-23,11.58-34.61Z"/><polygon class="cls-13" points="316.06 290.55 304.4 290.55 302.85 270.95 314.5 270.95 316.06 290.55"/><path class="cls-2" d="M303.74,289.57h13.13a.73.73,0,0,1,.72.58l1.67,7.53a1.24,1.24,0,0,1-1.24,1.5c-3.32-.06-8.55-.25-12.73-.25-2.58,0-7.36.27-10.91.27s-4-3.52-2.57-3.83c6.53-1.43,8.46-3.4,10.55-5.28A2.11,2.11,0,0,1,303.74,289.57Z"/><polygon class="cls-7" points="314.51 270.96 302.84 270.96 303.65 281.06 315.31 281.06 314.51 270.96"/><path class="cls-4" d="M284.18,125S290.64,179,292,198.51c1.89,27.09,9.2,80.59,9.2,80.59h15.5s1.66-54.64-1.14-79c3.86-21.2,2.64-73.58,2.64-73.58Z"/><polygon class="cls-2" points="300.58 279.44 317.6 279.44 318.36 273.99 299.2 273.63 300.58 279.44"/><path class="cls-4" d="M300.92,290.9a2.58,2.58,0,0,1-1.63-.43,1.23,1.23,0,0,1-.42-1.06.65.65,0,0,1,.35-.57c.94-.48,3.66,1.2,4,1.39a.2.2,0,0,1,.09.21.19.19,0,0,1-.15.16A10,10,0,0,1,300.92,290.9Zm-1.26-1.75a.67.67,0,0,0-.26.05.26.26,0,0,0-.13.24.79.79,0,0,0,.28.72c.46.39,1.56.45,3,.16A7.94,7.94,0,0,0,299.66,289.15Z"/><path class="cls-4" d="M303.09,290.6a.16.16,0,0,1-.1,0c-.88-.48-2.57-2.33-2.39-3.27a.66.66,0,0,1,.64-.53,1.07,1.07,0,0,1,.85.26c1,.8,1.19,3.25,1.2,3.35a.21.21,0,0,1-.09.18Zm-1.71-3.43h-.09c-.26,0-.29.15-.3.2-.1.56,1,2,1.85,2.62a4.83,4.83,0,0,0-1-2.65A.72.72,0,0,0,301.38,287.17Z"/><path class="cls-13" d="M289.53,50.35h0l-9.34-.12c-3.14,0-6.26-.09-9.35-.14-.94,0-1.86-.07-2.79-.1l.15-.17c.66-.7,1.32-1.42,2-2.1q.51-.54,1-1c.31-.35.7-.73.92-1L273,44.6a5.18,5.18,0,0,0-5.42-8.19l-1.85.5-1.71.55c-1.12.4-2.22.82-3.31,1.3a47.89,47.89,0,0,0-6.35,3.38,44.68,44.68,0,0,0-5.95,4.52,38.88,38.88,0,0,0-5.31,5.91,9.39,9.39,0,0,0-1,1.72,8.75,8.75,0,0,0,4.52,11.53l.91.4a39.47,39.47,0,0,0,6.36,2.11c1.9.49,3.7.8,5.47,1.1s3.5.54,5.22.76,3.42.36,5.12.5c3.39.31,6.74.45,10.09.56s6.64.09,10.11-.06a10.43,10.43,0,0,0-.33-20.84Z"/><path class="cls-2" d="M295,68.6c-8.07,9.21-27.49,5.76-27.49,5.76l1.07-22.92a100.61,100.61,0,0,1,20.26-2.34C300.21,49.07,301.43,61.23,295,68.6Z"/><path class="cls-2" d="M273.43,61.56c-.48,3.69-.95,8.68-1.31,15.38-4.21,21.29-5.78,36.38-2.06,47.39,2.94,3.63,41.25,2.93,48.14,2.24,4-9.9,4.42-38.32,4.89-62.21a13.79,13.79,0,0,0-11.45-13.83,93.24,93.24,0,0,0-26.12-.88A13.77,13.77,0,0,0,273.43,61.56Z"/><path class="cls-7" d="M310.6,76.09C310.73,83.38,316,95,322,100.9c.36-6.15.59-12.82.77-19.54Z"/><path class="cls-13" d="M344,90.25l-.34-.81a76.53,76.53,0,0,0-4.89-9.66c-1.78-3-3.7-5.83-5.7-8.57s-4.09-5.33-6.25-7.88c-1.1-1.26-2.19-2.52-3.34-3.73l-1.73-1.83-1.88-1.85a10.41,10.41,0,0,0-15.07,14.36l.3.33L311,77.14c2,2.22,3.91,4.49,5.81,6.73.92,1.14,1.87,2.27,2.73,3.41s1.77,2.27,2.63,3.41c1.24,1.73,2.44,3.44,3.5,5.13a21.92,21.92,0,0,1-.61,2.53,71.92,71.92,0,0,1-2.53,7.15c-1,2.47-2.06,5-3.16,7.48s-2.28,5.1-3.33,7.59l-.1.22a5.26,5.26,0,0,0,8.4,5.91,82.86,82.86,0,0,0,6.27-6.47c2-2.26,3.84-4.61,5.63-7.11.89-1.25,1.73-2.55,2.57-3.89a44.29,44.29,0,0,0,2.4-4.25,41.1,41.1,0,0,0,2.1-4.92,22.78,22.78,0,0,0,1.28-6.72A7.45,7.45,0,0,0,344,90.25Z"/><path class="cls-2" d="M312.32,50.67C325.81,53,334.6,71.23,334.6,71.23L318.34,88.67s-9.38-9.54-15-18.38C297.27,60.67,302.66,49,312.32,50.67Z"/><path class="cls-2" d="M287.67,21.87c-2.25-3.78-3-9,1.15-14.3a4.22,4.22,0,0,1-4.12-2A24.78,24.78,0,0,1,300.78,0c12.11,0,13,4.67,12.6,7.86,8.28.53,14.32,22.07-6.67,25.87C294.7,21,287.67,21.87,287.67,21.87Z"/><path class="cls-2" d="M312.61,8.22S316,4.78,311.79.61a5.65,5.65,0,0,1,3.95,3.92C316.33,7,314.7,8.9,312.61,8.22Z"/><path class="cls-13" d="M308,31.07c-.32,6.62-.92,14.16.19,19.46-1.72,2.7-6.12,5.82-14,6.52-2.8-1.59-6.5-5.47-5.21-7.47,3.35-2.15,4.77-8.67,3.81-13.53Z"/><path class="cls-7" d="M304.14,32.32,292.75,36a17.93,17.93,0,0,1,.05,6.29,15.3,15.3,0,0,0,9.88-5.08A6.3,6.3,0,0,0,304.14,32.32Z"/><path class="cls-13" d="M311.3,20.56c-2.11,8.13-2.93,13-7.91,16.41-7.49,5.14-16.91-.61-17.28-9.21C285.79,20,289.29,8,298,6.32A11.46,11.46,0,0,1,311.3,20.56Z"/><path class="cls-2" d="M309.62,8.93c-3.57,2.54-8,13.3,1,17.61C318.7,19.45,316.61,8.93,309.62,8.93Z"/><path class="cls-2" d="M311.68,10.22c1.53-7.09-16.34-10.74-22-2.48C287.76,12.7,310.6,17.13,311.68,10.22Z"/><path class="cls-2" d="M298.35,29.19h0a17.13,17.13,0,0,0-5.88-1.48.2.2,0,0,0-.21.22.29.29,0,0,0,.27.23,16.91,16.91,0,0,1,5.64,1.43.24.24,0,0,0,.31-.11A.23.23,0,0,0,298.35,29.19Z"/><path class="cls-13" d="M313.25,29.45A7.94,7.94,0,0,1,307.69,32c-2.8.07-3.51-2.6-2.16-4.88,1.22-2.06,4.14-4.57,6.68-3.55S315,27.55,313.25,29.45Z"/><path class="cls-2" d="M298.37,20.43c-.13.67-.59,1.14-1,1.06s-.69-.7-.56-1.37.6-1.15,1-1.06S298.5,19.76,298.37,20.43Z"/><path class="cls-2" d="M290.8,19c-.13.67-.6,1.15-1,1.06s-.69-.7-.56-1.37.59-1.14,1-1.06S290.93,18.28,290.8,19Z"/><path class="cls-14" d="M293.14,19.75a24.53,24.53,0,0,1-4.32,5.11c1,1.34,3.21,1.08,3.21,1.08Z"/><path class="cls-2" d="M297.28,16.54a.38.38,0,0,1,.4.12,3.16,3.16,0,0,0,2.66,1.14.41.41,0,0,1,.46.34.4.4,0,0,1-.34.46,4,4,0,0,1-3.38-1.41.4.4,0,0,1,0-.57A.3.3,0,0,1,297.28,16.54Z"/><path class="cls-2" d="M288.45,14.32a.4.4,0,0,1-.13-.7,3.93,3.93,0,0,1,3.57-.78.4.4,0,0,1,.25.51.4.4,0,0,1-.5.25h0a3.21,3.21,0,0,0-2.83.65A.42.42,0,0,1,288.45,14.32Z"/><path class="cls-13" d="M320.74,120.29l-8.59-.06,4.44,9.86s7.33-1.58,6.93-5.55Z"/><path class="cls-13" d="M307.78,127l1.41,2.78a3.34,3.34,0,0,0,4.21,1.59l3.19-1.27-4.44-9.86-3.42,2.6A3.33,3.33,0,0,0,307.78,127Z"/><path class="cls-4" d="M255.35,113a5.32,5.32,0,0,1-3.81-9c3.82-3.93,7.27-7,10.31-9.66,7.34-6.48,9.87-9,9.63-13.85a48.8,48.8,0,0,0-1.9-8.83c-2.19-8-4.67-17.16-.43-24.46,2.29-3.93,6.16-6.62,11.51-8a5.32,5.32,0,1,1,2.66,10.31c-3.76,1-4.67,2.53-5,3-2,3.46-.06,10.59,1.5,16.33A55.6,55.6,0,0,1,282.11,80c.5,10.25-5.55,15.59-13.22,22.36-2.9,2.56-6.18,5.45-9.72,9.1A5.31,5.31,0,0,1,255.35,113Z"/><path class="cls-13" d="M267,36.62l8.32-2.12L273.4,45.13s-7.49.24-8-3.72Z"/><path class="cls-13" d="M281.18,40.14l-.64,2.77a3.49,3.49,0,0,1-3.88,2.67l-3.26-.45,1.94-10.63,3.82,1.65A3.49,3.49,0,0,1,281.18,40.14Z"/><rect class="cls-2" x="232.95" y="88.55" width="5.5" height="46.89" rx="2.59" transform="translate(148.18 -133.84) rotate(44.99)"/><rect class="cls-2" x="248.3" y="103.91" width="5.5" height="46.89" rx="2.59" transform="translate(163.58 -140.22) rotate(45)"/><path class="cls-4" d="M237.07,87.69h29.39a7.17,7.17,0,0,1,7.17,7.17v25.69a7.17,7.17,0,0,1-7.17,7.17H237.07a0,0,0,0,1,0,0v-40a0,0,0,0,1,0,0Z" transform="translate(-1.36 212.11) rotate(-45)"/><path class="cls-11" d="M237.07,87.69h29.39a7.17,7.17,0,0,1,7.17,7.17v25.69a7.17,7.17,0,0,1-7.17,7.17H237.07a0,0,0,0,1,0,0v-40a0,0,0,0,1,0,0Z" transform="translate(-1.36 212.11) rotate(-45)"/><path class="cls-12" d="M235.47,99.28l-7.2,7.2,28.31,28.3,7.19-7.19a5.67,5.67,0,0,0-1.39-2.22l-24.69-24.7A5.86,5.86,0,0,0,235.47,99.28Z"/><rect class="cls-4" x="237.39" y="96.23" width="11.97" height="46.89" rx="5.62" transform="translate(-13.34 207.15) rotate(-45)"/></g></g></svg>